<?xml version="1.0" encoding="iso-8859-1"?>
<!-- Generator: Adobe Illustrator 19.0.0, SVG Export Plug-In . SVG Version: 6.00 Build 0)  -->
<svg version="1.1" id="Capa_1" xmlns="http://www.w3.org/2000/svg" xmlns:xlink="http://www.w3.org/1999/xlink" x="0px" y="0px"
	 viewBox="0 0 480 480" style="enable-background:new 0 0 480 480;" xml:space="preserve">
<g>
	<rect x="192" y="376" style="fill:#2C2F47;" width="112" height="16"/>
	<path style="fill:#2C2F47;" d="M120,392H92c-50.728,0-92-41.272-92-92s41.272-92,92-92h92v16H92c-41.904,0-76,34.096-76,76
		s34.096,76,76,76h28V392z"/>
	<path style="fill:#2C2F47;" d="M396,224H240v-16h156c37.496,0,68-30.504,68-68s-30.504-68-68-68h-36V56h36c46.32,0,84,37.68,84,84
		S442.32,224,396,224z"/>
	<rect x="88" y="56" style="fill:#2C2F47;" width="200" height="16"/>
</g>
<path style="fill:#FFC931;" d="M384,472c48.6,0,88-39.4,88-88s-39.4-88-88-88s-88,39.4-88,88S335.4,472,384,472z M360,344l72,40
	l-72,40V344z"/>
<polygon style="fill:#E68F39;" points="360,344 360,424 432,384 "/>
<polygon style="fill:#5086F2;" points="8,120 112,64 8,8 "/>
<g>
	<polygon style="fill:#4BDDDD;" points="216,384 112,328 112,384 112,440 	"/>
	<polygon style="fill:#4BDDDD;" points="280,64 280,120 384,64 280,8 	"/>
	<polygon style="fill:#4BDDDD;" points="264,216 264,160 160,216 264,272 	"/>
</g>
<path style="fill:#E6B52C;" d="M432,384l-48,26.664V472c48.6,0,88-39.4,88-88s-39.4-88-88-88v61.336L432,384z"/>
<g>
</g>
<g>
</g>
<g>
</g>
<g>
</g>
<g>
</g>
<g>
</g>
<g>
</g>
<g>
</g>
<g>
</g>
<g>
</g>
<g>
</g>
<g>
</g>
<g>
</g>
<g>
</g>
<g>
</g>
</svg>
